<?xml version="1.0" encoding="UTF-8"?>
<svg width="512" height="512" viewBox="0 0 512 512" fill="none" xmlns="http://www.w3.org/2000/svg">
  <!-- Background Circle -->
  <circle cx="256" cy="256" r="256" fill="#4CAF50"/>
  
  <!-- Dog Face -->
  <path d="M256 140C187.3 140 132 195.3 132 264C132 332.7 187.3 388 256 388C324.7 388 380 332.7 380 264C380 195.3 324.7 140 256 140Z" fill="white"/>
  
  <!-- Eyes -->
  <circle cx="208" cy="248" r="24" fill="#333"/>
  <circle cx="304" cy="248" r="24" fill="#333"/>
  
  <!-- Nose -->
  <path d="M256 280C242.7 280 232 290.7 232 304C232 317.3 242.7 328 256 328C269.3 328 280 317.3 280 304C280 290.7 269.3 280 256 280Z" fill="#333"/>
  
  <!-- Ears -->
  <path d="M176 200C176 177.9 194.3 160 217 160C239.7 160 258 177.9 258 200" fill="#4CAF50"/>
  <path d="M254 200C254 177.9 272.3 160 295 160C317.7 160 336 177.9 336 200" fill="#4CAF50"/>
  
  <!-- Heart -->
  <path d="M256 340C256 340 280 320 304 320C328 320 344 336 344 360C344 384 320 400 256 440C192 400 168 384 168 360C168 336 184 320 208 320C232 320 256 340 256 340Z" fill="#F44336"/>
</svg> 